# xmcd
#
# Track frame offsets:
#	150
#	22017
#	35814
#	40574
#	55994
#	75966
#	92773
#	106272
#	118450
#	131471
#
# Disc length: 1940
#
# Revision: 4
# Processed by: cddbd v1.5.1PL0 Copyright (c) Steve Scherf et al.
# Submitted via: ExactAudioCopy v0.90b4
# Normalized: r3:DSETVAR1
#
DISCID=7d07920a
DTITLE=Various Artist - Denim Blues
DYEAR=1998
DGENRE=Blues
TTITLE0=Lightnin' Hopkins - Awful Dreams
TTITLE1=Leadbelly - Where Did You Sleep Last Night
TTITLE2=Billie Holiday - Just Friends
TTITLE3=Dinah Washington - Trouble Trouble
TTITLE4=John Mayall - Road Show
TTITLE5=John Lee Hooker - Process
TTITLE6=Eddie ''Clean Head'' Vinson - Cherry Red
TTITLE7=Elmore James - Mean Mistreatin' Mama
TTITLE8=Bo Diddley - Cracklin'
TTITLE9=Joe Liggins - Goin' Back To L.A.
EXTD=
EXTT0=Lightnin' Hopkins
EXTT1=Leadbelly
EXTT2=Billie Holiday
EXTT3=Dinah Washington
EXTT4=John Mayall
EXTT5=John Lee Hooker
EXTT6=Eddie "Clean Head" Vinson
EXTT7=Elmore James
EXTT8=Bo Diddley
EXTT9=Joe Liggins
PLAYORDER=
